<svg version="1.1" xmlns="http://www.w3.org/2000/svg" xmlns:xlink="http://www.w3.org/1999/xlink" width="100"
  height="100">
  <path fill="#333"
    d="M50.002,100C22.386,100,0,77.614,0,50.002C0,22.386,22.386,0,50.002,0c3.146,0,6.214,0.326,9.197,0.883c-0.549,2.401-0.866,4.887-0.866,7.451c0,18.41,14.927,33.333,33.337,33.333c2.56,0,5.051-0.317,7.451-0.867c0.554,2.987,0.879,6.051,0.879,9.201C100,77.614,77.614,100,50.002,100z M42.551,17.531c-14.817,3.388-25.882,16.622-25.882,32.471c0,18.407,14.923,33.333,33.333,33.333c15.842,0,29.081-11.065,32.466-25.882C62.243,53.685,46.315,37.759,42.551,17.531z"
    transform="translate(0,0)"></path>
</svg>